<svg width="375" height="217" viewBox="0 0 375 217" fill="none" xmlns="http://www.w3.org/2000/svg">
<path d="M166.691 216.805C177.805 216.805 186.815 213.417 186.815 209.238C186.815 205.059 177.805 201.671 166.691 201.671C155.577 201.671 146.567 205.059 146.567 209.238C146.567 213.417 155.577 216.805 166.691 216.805Z" fill="#898989"/>
<path d="M210.449 216.805C221.563 216.805 230.573 213.417 230.573 209.238C230.573 205.059 221.563 201.671 210.449 201.671C199.335 201.671 190.325 205.059 190.325 209.238C190.325 213.417 199.335 216.805 210.449 216.805Z" fill="#898989"/>
<path d="M116.222 6.44922L92.879 62.5013H102.384V43.6316H131.877V62.5013H143.059V85.5652H131.877V104.576H102.384V85.5652H60.5894V64.598L85.7506 6.44922H116.222Z" fill="#3C3C43" fill-opacity="0.6"/>
<path d="M226.231 55.5129C226.231 87.6627 212.113 105.415 186.673 105.415C160.953 105.415 146.975 87.6634 146.975 55.5129C146.975 23.3631 160.953 5.61084 186.673 5.61084C212.113 5.61084 226.231 23.3631 226.231 55.5129ZM177.587 55.5129C177.587 76.0605 179.684 83.6085 186.673 83.6085C193.523 83.6085 195.619 76.0605 195.619 55.5129C195.619 34.8255 193.523 27.4165 186.673 27.4165C179.684 27.4165 177.587 34.8255 177.587 55.5129Z" fill="#3C3C43" fill-opacity="0.6"/>
<path d="M288.715 6.44922L265.372 62.5013H274.877V43.6316H304.37V62.5013H315.553V85.5652H304.37V104.576H274.877V85.5652H233.083V64.598L258.243 6.44922H288.715Z" fill="#3C3C43" fill-opacity="0.6"/>
<path d="M375 164.047C375 164.047 291.377 177.022 278.921 141.73C266.904 107.68 266.571 81.0278 258.872 74.2988" stroke="#485F66" stroke-miterlimit="10"/>
<path d="M1 164.047C1 164.047 84.7648 177.022 97.2212 141.73C109.239 107.68 109.571 81.0278 117.271 74.2988" stroke="#485F66" stroke-miterlimit="10"/>
<path d="M208.755 176.393L205.297 199.52H197.643L194.179 176.393H208.755Z" fill="#395156"/>
<path d="M205.309 176.393L201.851 199.52H197.643L194.179 176.393H205.309Z" fill="#485F66"/>
<path d="M204.295 213.28L217.309 210.008L205.783 199.002H197.677V202.795L204.295 213.28Z" fill="#395156"/>
<path d="M207.544 166.486L197.895 168.038L197.301 168.134L193.011 168.823L192.878 168.301L185.531 139.559L191.171 138.809L191.764 138.732L199.513 137.707L202.839 137.263L207.544 166.486Z" fill="#395156"/>
<path d="M204.145 166.486L194.497 168.038L193.903 168.134L192.878 168.302L185.531 139.559L191.171 138.81L191.764 138.732L199.513 137.707L204.145 166.486Z" fill="#485F66"/>
<path d="M192.853 171.644L208.519 169.121L207.911 165.35L192.245 167.873L192.853 171.644Z" fill="#395156"/>
<path d="M209.27 172.772L206.885 173.03L193.496 174.481L193.083 170.681L206.471 169.23L208.857 168.973L209.27 172.772Z" fill="#395156"/>
<path d="M206.477 169.232L193.088 170.683L193.5 174.483L206.889 173.032L206.477 169.232Z" fill="#485F66"/>
<path d="M193.52 177.919L209.334 176.623L209.022 172.816L193.207 174.113L193.52 177.919Z" fill="#395156"/>
<path d="M217.309 210.008V212.834L204.295 213.28L217.309 210.008Z" fill="#485F66"/>
<path d="M201.599 202.816L201 202.871L198.405 173.402L197.302 168.134L191.171 138.81L191.764 138.732L197.895 168.039L198.998 173.312L201.599 202.816Z" fill="#395156"/>
<path d="M180.077 176.393L176.619 199.52H168.96L165.502 176.393H180.077Z" fill="#395156"/>
<path d="M177.279 176.393L173.821 199.52H168.96L165.502 176.393H177.279Z" fill="#485F66"/>
<path d="M169.963 213.28L156.95 210.008L168.876 198.901L176.582 199.002V202.795L169.963 213.28Z" fill="#395156"/>
<path d="M188.953 139.559L181.474 168.823L178.639 168.367L177.711 168.218L177.123 168.122L166.935 166.486L171.579 137.647L171.639 137.263L183.248 138.803L183.847 138.881L188.953 139.559Z" fill="#395156"/>
<path d="M186.004 139.559L178.639 168.367L177.711 168.218L177.123 168.122L166.935 166.486L171.579 137.647L180.299 138.803L180.898 138.881L186.004 139.559Z" fill="#485F66"/>
<path d="M182.001 167.87L181.396 171.64L165.73 169.117L166.335 165.347L177.333 167.121L177.92 167.211L182.001 167.87Z" fill="#395156"/>
<path d="M181.175 170.681L180.767 174.481L178.1 174.193L164.993 172.772L165.4 168.973L178.507 170.393L181.175 170.681Z" fill="#395156"/>
<path d="M178.507 170.393L178.1 174.193L164.993 172.772L165.4 168.973L178.507 170.393Z" fill="#485F66"/>
<path d="M181.034 174.131L165.219 172.835L164.907 176.642L180.722 177.938L181.034 174.131Z" fill="#395156"/>
<path d="M156.95 210.008V212.809L169.963 213.28L156.95 210.008Z" fill="#485F66"/>
<path d="M175.763 176.393H176.362L174.324 199.52H173.724L175.763 176.393Z" fill="#395156"/>
<path d="M183.847 138.881L177.92 167.211L177.333 167.121L183.248 138.803L183.847 138.881Z" fill="#395156"/>
<path d="M187.215 1.95996H186.279V16.4936H187.215V1.95996Z" fill="#6D8189"/>
<path d="M191.26 20.6389H182.833V19.8715C182.833 17.5444 184.719 15.6572 187.047 15.6572C189.374 15.6572 191.261 17.5437 191.261 19.8715V20.6389H191.26Z" fill="#485F66"/>
<path d="M227.309 88.3708L231.52 94.4453L252.851 79.658L248.64 73.5835L227.309 88.3708Z" fill="#485F66"/>
<path d="M202.495 90.5275L226.499 96.3642L228.643 88.5333L201.11 76.8862L202.495 90.5275Z" fill="#485F66"/>
<path d="M223.51 92.2187C223.51 94.6182 225.456 96.5638 227.855 96.5638C230.255 96.5638 232.2 94.6182 232.2 92.2187C232.2 89.8191 230.255 87.8735 227.855 87.8735C225.456 87.8735 223.51 89.8191 223.51 92.2187Z" fill="#6D8189"/>
<path d="M225.282 92.2189C225.282 93.6393 226.434 94.7912 227.854 94.7912C229.275 94.7912 230.426 93.6393 230.426 92.2189C230.426 90.7984 229.275 89.6465 227.854 89.6465C226.434 89.6472 225.282 90.7984 225.282 92.2189Z" fill="#485F66"/>
<path d="M252.51 64.271L249.884 67.0491C246.904 70.2011 247.044 75.1746 250.196 78.1539C253.348 81.1339 258.321 80.994 261.301 77.8412L263.927 75.0624L260.932 72.2312L258.403 74.9068C256.985 76.4073 254.625 76.4731 253.125 75.0549C251.624 73.6367 251.552 71.2715 252.971 69.771L255.5 67.0954L252.51 64.271Z" fill="#6D8189"/>
<path d="M125.002 73.5666L120.791 79.6411L142.122 94.4284L146.333 88.3539L125.002 73.5666Z" fill="#485F66"/>
<path d="M171.148 90.5277L147.144 96.3643L144.999 88.5335L172.532 77.2178L171.148 90.5277Z" fill="#485F66"/>
<path d="M201.748 24.4734V60.2704C201.748 64.178 198.578 67.348 194.671 67.348H179.61C175.702 67.348 172.532 64.178 172.532 60.2704V26.1751C172.532 22.5735 175.235 19.5463 178.813 19.1454L191.405 17.7249L193.88 17.4429C198.075 16.9695 201.748 20.2539 201.748 24.4734Z" fill="#63797F"/>
<path d="M196.355 24.4731V60.2701C196.355 64.1777 193.185 67.3477 189.277 67.3477H179.61C175.702 67.3477 172.532 64.1777 172.532 60.2701V26.1748C172.532 22.5731 175.235 19.546 178.813 19.1451L191.405 17.7246C194.251 18.6177 196.355 21.2724 196.355 24.4731Z" fill="#6D8189"/>
<path d="M192.359 70.9937H181.172C180.786 70.9937 180.473 70.6803 180.473 70.2943V67.9972C180.473 67.6113 180.786 67.2979 181.172 67.2979H192.359C192.745 67.2979 193.059 67.6113 193.059 67.9972V70.2943C193.059 70.6803 192.745 70.9937 192.359 70.9937Z" fill="#485F66"/>
<path d="M191.559 74.4398H181.972C181.613 74.4398 181.322 74.1488 181.322 73.7897V71.3946C181.322 71.0356 181.613 70.7446 181.972 70.7446H191.559C191.918 70.7446 192.21 71.0356 192.21 71.3946V73.7897C192.21 74.1488 191.918 74.4398 191.559 74.4398Z" fill="#395156"/>
<path d="M192.147 77.8106H181.384C181.005 77.8106 180.697 77.5032 180.697 77.124V74.8014C180.697 74.4222 181.005 74.1147 181.384 74.1147H192.147C192.526 74.1147 192.834 74.4222 192.834 74.8014V77.124C192.834 77.5032 192.526 77.8106 192.147 77.8106Z" fill="#485F66"/>
<path d="M207.454 85.8241L206.022 116.144L205.992 116.743L205.152 134.47L204.918 139.486L204.547 147.308H170.033L169.661 139.486L169.427 134.47L168.444 113.692L168.414 113.093L167.126 85.8249C166.886 80.8327 170.452 76.6372 174.935 76.6372H199.644C204.128 76.6372 207.694 80.832 207.454 85.8241Z" fill="#63797F"/>
<path d="M199.963 85.8241L198.53 116.144L198.5 116.743L197.661 134.47L197.427 139.486L197.055 147.308H170.033L169.661 139.486L169.427 134.47L168.444 113.692L168.414 113.093L167.126 85.8249C166.886 80.8327 170.452 76.6372 174.935 76.6372H192.153C196.636 76.6372 200.202 80.832 199.963 85.8241Z" fill="#6D8189"/>
<path d="M150.133 92.2187C150.133 94.6182 148.187 96.5638 145.788 96.5638C143.388 96.5638 141.442 94.6182 141.442 92.2187C141.442 89.8191 143.388 87.8735 145.788 87.8735C148.188 87.8735 150.133 89.8191 150.133 92.2187Z" fill="#6D8189"/>
<path d="M145.788 94.4285C147.009 94.4285 147.998 93.4392 147.998 92.2189C147.998 90.9985 147.009 90.0093 145.788 90.0093C144.568 90.0093 143.579 90.9985 143.579 92.2189C143.579 93.4392 144.568 94.4285 145.788 94.4285Z" fill="#485F66"/>
<path d="M121.133 64.271L123.759 67.0491C126.739 70.2011 126.598 75.1746 123.446 78.1539C120.294 81.1339 115.321 80.994 112.341 77.8412L109.715 75.0624L112.71 72.2312L115.239 74.9068C116.657 76.4073 119.017 76.4731 120.518 75.0549C122.018 73.6367 122.09 71.2715 120.672 69.771L118.143 67.0954L121.133 64.271Z" fill="#6D8189"/>
<path d="M188.102 1.38604C188.102 2.15125 187.481 2.77209 186.716 2.77209C185.951 2.77209 185.33 2.15125 185.33 1.38604C185.33 0.620838 185.951 0 186.716 0C187.481 0 188.102 0.62009 188.102 1.38604Z" fill="#FFC84D"/>
<path d="M196.58 54.6122C190.087 50.567 183.594 58.6574 177.102 54.6122C177.102 53.9383 177.102 53.2636 177.102 52.5896C183.594 56.6348 190.087 48.5444 196.58 52.5896C196.58 53.2636 196.58 53.9383 196.58 54.6122Z" fill="#485F66"/>
<path d="M185.145 44.3534C187.836 41.6619 187.836 37.2981 185.145 34.6066C182.453 31.9151 178.089 31.9151 175.398 34.6066C172.706 37.2981 172.706 41.6619 175.398 44.3534C178.089 47.0449 182.453 47.0449 185.145 44.3534Z" fill="#63797F"/>
<path d="M200.317 41.0805C201.195 37.3768 198.905 33.6626 195.201 32.7845C191.498 31.9063 187.783 34.1968 186.905 37.9005C186.027 41.6041 188.318 45.3183 192.021 46.1964C195.725 47.0746 199.439 44.7841 200.317 41.0805Z" fill="#63797F"/>
<path d="M193.902 32.5879H180.211V46.3631H193.902V32.5879Z" fill="#63797F"/>
<path d="M181.971 35.8838H178.825V43.1506H181.971V35.8838Z" fill="#F7BC14"/>
<path d="M181.634 36.4458H179.162V42.5884H181.634V36.4458Z" fill="#FFC84D"/>
<path d="M195.681 35.8838H192.534V43.1506H195.681V35.8838Z" fill="#F7BC14"/>
<path d="M175.798 34.7525L174.855 33.4868L182.601 27.2021L184.172 29.9286L175.798 34.7525Z" fill="#485F66"/>
<path d="M198.711 34.7525L199.654 33.4868L191.907 27.2021L190.337 29.9286L198.711 34.7525Z" fill="#485F66"/>
<path d="M200.201 88.1733H173.931V104.655H200.201V88.1733Z" fill="#63797F"/>
<path d="M197.653 89.772H176.478V103.056H197.653V89.772Z" fill="#485F66"/>
<path d="M195.729 92.4424H178.402V93.2794H195.729V92.4424Z" fill="#FFC84D"/>
<path d="M193.017 94.749H181.113V95.586H193.017V94.749Z" fill="#FFC84D"/>
<path d="M194.327 96.8062H179.804V97.6432H194.327V96.8062Z" fill="#FFC84D"/>
<path d="M206.022 116.143L205.992 116.743H191.609V109.449H178.873V113.692H168.445L168.415 113.093H178.274V108.85H192.208V116.143H206.022Z" fill="#485F66"/>
<path d="M178.575 114.344C179.182 114.344 179.674 113.852 179.674 113.245C179.674 112.638 179.182 112.146 178.575 112.146C177.969 112.146 177.477 112.638 177.477 113.245C177.477 113.852 177.969 114.344 178.575 114.344Z" fill="#485F66"/>
<path d="M179.324 109.05C179.324 109.463 178.989 109.799 178.575 109.799C178.162 109.799 177.826 109.464 177.826 109.05C177.826 108.636 178.161 108.3 178.575 108.3C178.99 108.3 179.324 108.636 179.324 109.05Z" fill="#485F66"/>
<path d="M192.659 109.05C192.659 109.463 192.324 109.799 191.91 109.799C191.496 109.799 191.16 109.464 191.16 109.05C191.16 108.636 191.496 108.3 191.91 108.3C192.324 108.301 192.659 108.636 192.659 109.05Z" fill="#485F66"/>
<path d="M192.659 116.241C192.659 116.655 192.324 116.99 191.91 116.99C191.496 116.99 191.16 116.655 191.16 116.241C191.16 115.828 191.496 115.493 191.91 115.493C192.324 115.492 192.659 115.828 192.659 116.241Z" fill="#485F66"/>
<path d="M195.318 36.4458H192.846V42.5884H195.318V36.4458Z" fill="#FFC84D"/>
<path d="M205.494 139.415H168.937V150.427H205.494V139.415Z" fill="#395156"/>
<path d="M193.076 139.415H168.937V150.427H193.076V139.415Z" fill="#485F66"/>
<path d="M205.152 134.47L204.919 139.487H169.661L169.428 134.47H205.152Z" fill="#63797F"/>
<path d="M117.271 74.2991C117.552 74.0537 117.842 73.8346 118.143 73.6423C126.707 68.1924 126.512 89.0175 126.512 89.0175" stroke="#485F66" stroke-miterlimit="10"/>
<path d="M125.606 92.1567H124.73V95.3926H125.606V92.1567Z" fill="#485F66"/>
<path d="M128.599 92.1567H127.723V95.3926H128.599V92.1567Z" fill="#485F66"/>
<path d="M129.88 90.867V93.2023H123.457V90.867C123.457 89.092 124.889 87.6514 126.664 87.6514C127.552 87.6514 128.354 88.0097 128.937 88.5931C129.015 88.6709 129.093 88.7569 129.163 88.8422C129.615 89.3957 129.88 90.1041 129.88 90.867Z" fill="#485F66"/>
<path d="M129.88 90.8672V93.2024H124.376V91.6451C124.376 89.8701 125.816 88.4302 127.591 88.4302C128.159 88.4302 128.696 88.5783 129.163 88.8431C129.615 89.3958 129.88 90.1042 129.88 90.8672Z" fill="#6D8189"/>
<path d="M258.872 74.2991C258.591 74.0537 258.301 73.8346 257.999 73.6423C249.436 68.1924 249.63 89.0175 249.63 89.0175" stroke="#485F66" stroke-miterlimit="10"/>
<path d="M246.262 90.867V93.2023H252.685V90.867C252.685 89.092 251.252 87.6514 249.477 87.6514C248.589 87.6514 247.788 88.0097 247.204 88.5931C247.126 88.6709 247.049 88.7569 246.978 88.8422C246.527 89.3957 246.262 90.1041 246.262 90.867Z" fill="#485F66"/>
<path d="M246.262 90.8672V93.2024H251.766V91.6451C251.766 89.8701 250.326 88.4302 248.551 88.4302C247.983 88.4302 247.446 88.5783 246.979 88.8431C246.527 89.3958 246.262 90.1042 246.262 90.8672Z" fill="#6D8189"/>
<path d="M123.674 106.54L122.894 106.594L122.746 104.878L121.96 107.419L122.741 107.365L122.888 109.081L123.674 106.54Z" fill="#FFC84D"/>
<path d="M137.522 98.7106L136.753 99.6126L134.739 97.9551L136.657 101.497L137.426 100.596L139.44 102.253L137.522 98.7106Z" fill="#FFC84D"/>
<path d="M134.218 107.216L132.926 107.933L131.299 105.119L131.992 110.091L133.283 109.374L134.911 112.188L134.218 107.216Z" fill="#FFC84D"/>
<path d="M242.332 97.3553L241.669 96.9417L242.554 95.4644L240.429 97.0636L241.093 97.4772L240.208 98.9538L242.332 97.3553Z" fill="#FFC84D"/>
<path d="M258.143 99.118L256.992 99.3985L256.33 96.8755L255.81 100.87L256.961 100.589L257.623 103.112L258.143 99.118Z" fill="#FFC84D"/>
<path d="M250.484 104.077L249.017 103.902L249.346 100.668L246.996 105.104L248.462 105.279L248.133 108.514L250.484 104.077Z" fill="#FFC84D"/>
</svg>
